<svg width="34" height="34" viewBox="0 0 34 34" fill="none" xmlns="http://www.w3.org/2000/svg">
<path d="M9.20825 28.4936C9.20825 24.1904 12.6967 20.702 16.9999 20.702C21.3031 20.702 24.7916 24.1904 24.7916 28.4936M20.2805 13.2999C20.2805 15.1684 18.8117 16.6831 16.9998 16.6831C15.1879 16.6831 13.7191 15.1684 13.7191 13.2999C13.7191 11.4314 15.1879 9.91665 16.9998 9.91665C18.8117 9.91665 20.2805 11.4314 20.2805 13.2999ZM31.1666 17C31.1666 24.824 24.824 31.1666 16.9999 31.1666C9.17588 31.1666 2.83325 24.824 2.83325 17C2.83325 9.17595 9.17588 2.83331 16.9999 2.83331C24.824 2.83331 31.1666 9.17595 31.1666 17Z" stroke="black" stroke-width="1.5" stroke-linecap="round" stroke-linejoin="round"/>
</svg>
